<?xml version="1.0" encoding="UTF-8"?>
<svg width="176pt" version="1.1" xmlns="http://www.w3.org/2000/svg" height="128pt" viewBox="0 0 176 128" xmlns:xlink="http://www.w3.org/1999/xlink">
 <defs>
  <clipPath id="Clip0">
   <path d="M0 0 L175.283 0 L175.283 127.226 L0 127.226 L0 0 Z" transform="translate(0.519531, 0.1875)"/>
  </clipPath>
 </defs>
 <g id="Background">
  <g id="Group1" clip-path="url(#Clip0)">
   <path style="fill:none;stroke:#161412; stroke-width:1.275; stroke-linecap:butt; stroke-linejoin:miter; stroke-dasharray:none;" d="M0 108 L0 0 " transform="translate(17.75, 13)"/>
   <path style="fill:none;stroke:#161412; stroke-width:1.275; stroke-linecap:butt; stroke-linejoin:miter; stroke-dasharray:none;" d="M0 108 L0 0 " transform="translate(20.75, 13)"/>
   <path style="fill:none;stroke:#161412; stroke-width:4.275; stroke-linecap:butt; stroke-linejoin:miter; stroke-dasharray:none;" d="M0 99.9 L0 0 " transform="translate(25.25, 13)"/>
   <path style="fill:none;stroke:#161412; stroke-width:2.775; stroke-linecap:butt; stroke-linejoin:miter; stroke-dasharray:none;" d="M0 99.9 L0 0 " transform="translate(30.5, 13)"/>
   <path style="fill:none;stroke:#161412; stroke-width:1.275; stroke-linecap:butt; stroke-linejoin:miter; stroke-dasharray:none;" d="M0 99.9 L0 0 " transform="translate(37.25, 13)"/>
   <path style="fill:none;stroke:#161412; stroke-width:1.275; stroke-linecap:butt; stroke-linejoin:miter; stroke-dasharray:none;" d="M0 99.9 L0 0 " transform="translate(41.75, 13)"/>
   <path style="fill:none;stroke:#161412; stroke-width:1.275; stroke-linecap:butt; stroke-linejoin:miter; stroke-dasharray:none;" d="M0 99.9 L0 0 " transform="translate(44.75, 13)"/>
   <path style="fill:none;stroke:#161412; stroke-width:4.275; stroke-linecap:butt; stroke-linejoin:miter; stroke-dasharray:none;" d="M0 99.9 L0 0 " transform="translate(50.75, 13)"/>
   <path style="fill:none;stroke:#161412; stroke-width:1.275; stroke-linecap:butt; stroke-linejoin:miter; stroke-dasharray:none;" d="M0 99.9 L0 0 " transform="translate(58.25, 13)"/>
   <path style="fill:none;stroke:#161412; stroke-width:2.775; stroke-linecap:butt; stroke-linejoin:miter; stroke-dasharray:none;" d="M0 99.9 L0 0 " transform="translate(62, 13)"/>
   <path style="fill:none;stroke:#161412; stroke-width:1.275; stroke-linecap:butt; stroke-linejoin:miter; stroke-dasharray:none;" d="M0 99.9 L0 0 " transform="translate(68.75, 13)"/>
   <path style="fill:none;stroke:#161412; stroke-width:1.275; stroke-linecap:butt; stroke-linejoin:miter; stroke-dasharray:none;" d="M0 99.9 L0 0 " transform="translate(73.25, 13)"/>
   <path style="fill:none;stroke:#161412; stroke-width:1.275; stroke-linecap:butt; stroke-linejoin:miter; stroke-dasharray:none;" d="M0 99.9 L0 0 " transform="translate(79.25, 13)"/>
   <path style="fill:none;stroke:#161412; stroke-width:2.775; stroke-linecap:butt; stroke-linejoin:miter; stroke-dasharray:none;" d="M0 99.9 L0 0 " transform="translate(83, 13)"/>
   <path style="fill:none;stroke:#161412; stroke-width:1.275; stroke-linecap:butt; stroke-linejoin:miter; stroke-dasharray:none;" d="M0 108 L0 0 " transform="translate(86.75, 13)"/>
   <path style="fill:none;stroke:#161412; stroke-width:1.275; stroke-linecap:butt; stroke-linejoin:miter; stroke-dasharray:none;" d="M0 108 L0 0 " transform="translate(89.75, 13)"/>
   <path style="fill:none;stroke:#161412; stroke-width:1.275; stroke-linecap:butt; stroke-linejoin:miter; stroke-dasharray:none;" d="M0 99.9 L0 0 " transform="translate(92.75, 13)"/>
   <path style="fill:none;stroke:#161412; stroke-width:1.275; stroke-linecap:butt; stroke-linejoin:miter; stroke-dasharray:none;" d="M0 99.9 L0 0 " transform="translate(100.25, 13)"/>
   <path style="fill:none;stroke:#161412; stroke-width:1.275; stroke-linecap:butt; stroke-linejoin:miter; stroke-dasharray:none;" d="M0 99.9 L0 0 " transform="translate(103.25, 13)"/>
   <path style="fill:none;stroke:#161412; stroke-width:1.275; stroke-linecap:butt; stroke-linejoin:miter; stroke-dasharray:none;" d="M0 99.9 L0 0 " transform="translate(109.25, 13)"/>
   <path style="fill:none;stroke:#161412; stroke-width:1.275; stroke-linecap:butt; stroke-linejoin:miter; stroke-dasharray:none;" d="M0 99.9 L0 0 " transform="translate(113.75, 13)"/>
   <path style="fill:none;stroke:#161412; stroke-width:1.275; stroke-linecap:butt; stroke-linejoin:miter; stroke-dasharray:none;" d="M0 99.9 L0 0 " transform="translate(118.25, 13)"/>
   <path style="fill:none;stroke:#161412; stroke-width:1.275; stroke-linecap:butt; stroke-linejoin:miter; stroke-dasharray:none;" d="M0 99.9 L0 0 " transform="translate(124.25, 13)"/>
   <path style="fill:none;stroke:#161412; stroke-width:4.275; stroke-linecap:butt; stroke-linejoin:miter; stroke-dasharray:none;" d="M0 99.9 L0 0 " transform="translate(128.75, 13)"/>
   <path style="fill:none;stroke:#161412; stroke-width:1.275; stroke-linecap:butt; stroke-linejoin:miter; stroke-dasharray:none;" d="M0 99.9 L0 0 " transform="translate(134.75, 13)"/>
   <path style="fill:none;stroke:#161412; stroke-width:1.275; stroke-linecap:butt; stroke-linejoin:miter; stroke-dasharray:none;" d="M0 99.9 L0 0 " transform="translate(140.75, 13)"/>
   <path style="fill:none;stroke:#161412; stroke-width:1.275; stroke-linecap:butt; stroke-linejoin:miter; stroke-dasharray:none;" d="M0 99.9 L0 0 " transform="translate(145.25, 13)"/>
   <path style="fill:none;stroke:#161412; stroke-width:4.275; stroke-linecap:butt; stroke-linejoin:miter; stroke-dasharray:none;" d="M0 99.9 L0 0 " transform="translate(151.25, 13)"/>
   <path style="fill:none;stroke:#161412; stroke-width:1.275; stroke-linecap:butt; stroke-linejoin:miter; stroke-dasharray:none;" d="M0 108 L0 0 " transform="translate(155.75, 13)"/>
   <path style="fill:none;stroke:#161412; stroke-width:1.275; stroke-linecap:butt; stroke-linejoin:miter; stroke-dasharray:none;" d="M0 108 L0 0 " transform="translate(158.75, 13)"/>
   <path style="fill:#161412; fill-rule:evenodd;stroke:none;" d="M0.27344 9.863 C0.57813 11.957 1.94922 13.199 3.89844 13.199 C5.30469 13.199 6.58203 12.515 7.32421 11.379 C8.13671 10.133 8.49611 8.566 8.49611 6.238 C8.49611 4.094 8.17191 2.723 7.41411 1.586 C6.71094 0.558 5.59375 0 4.1836 0 C1.75 0 0 1.805 0 4.308 C0 6.691 1.625 8.367 3.9336 8.367 C5.14063 8.367 6.02344 7.933 6.85547 6.941 C6.83594 10.062 5.82813 11.793 4.00391 11.793 C2.88672 11.793 2.11329 11.09 1.85938 9.863 L0.27344 9.863 Z M4.16797 1.387 C5.64453 1.387 6.76563 2.613 6.76563 4.273 C6.76563 5.844 5.66407 6.961 4.11329 6.961 C2.58203 6.961 1.625 5.894 1.625 4.183 C1.625 2.558 2.70703 1.387 4.16797 1.387 Z" transform="translate(2.68359, 114.215)"/>
   <path style="fill:#161412; fill-rule:evenodd;stroke:none;" d="M8.5508 0 L0 0 L0 1.566 L6.9102 1.566 C3.8594 5.914 2.6172 8.582 1.6602 12.785 L3.3555 12.785 C4.0586 8.691 5.6641 5.176 8.5508 1.332 L8.5508 0 Z" transform="translate(23.8281, 114.215)"/>
   <path style="fill:#161412; fill-rule:evenodd;stroke:none;" d="M6.3828 6.058 C7.6992 5.265 8.1328 4.617 8.1328 3.406 C8.1328 1.406 6.5625 0 4.2929 0 C2.0351 0 0.4492 1.406 0.4492 3.406 C0.4492 4.597 0.8828 5.246 2.1797 6.058 C0.7187 6.762 0 7.824 0 9.234 C0 11.578 1.7656 13.199 4.2929 13.199 C6.8164 13.199 8.582 11.578 8.582 9.25 C8.582 7.824 7.8632 6.762 6.3828 6.058 Z M4.2929 1.406 C5.6445 1.406 6.5078 2.199 6.5078 3.445 C6.5078 4.633 5.625 5.426 4.2929 5.426 C2.957 5.426 2.0742 4.633 2.0742 3.426 C2.0742 2.199 2.957 1.406 4.2929 1.406 Z M4.2929 6.762 C5.8789 6.762 6.9609 7.773 6.9609 9.269 C6.9609 10.785 5.8789 11.793 4.2539 11.793 C2.7031 11.793 1.6211 10.765 1.6211 9.269 C1.6211 7.773 2.7031 6.762 4.2929 6.762 Z" transform="translate(34.168, 114.215)"/>
   <path style="fill:#161412; fill-rule:evenodd;stroke:none;" d="M4.1836 0 C2.9922 0 1.9102 0.523 1.2422 1.406 C0.4141 2.523 0 4.238 0 6.601 C0 10.91 1.4415 13.199 4.1836 13.199 C6.8868 13.199 8.3672 10.91 8.3672 6.707 C8.3672 4.219 7.9688 2.558 7.1211 1.406 C6.4532 0.504 5.3907 0 4.1836 0 Z M4.1836 1.406 C5.8946 1.406 6.7422 3.137 6.7422 6.562 C6.7422 10.187 5.9141 11.883 4.1446 11.883 C2.4688 11.883 1.6211 10.117 1.6211 6.617 C1.6211 3.121 2.4688 1.406 4.1836 1.406 Z" transform="translate(44.7773, 114.215)"/>
   <path style="fill:#161412; fill-rule:evenodd;stroke:none;" d="M0.2734 9.863 C0.5781 11.957 1.9492 13.199 3.8984 13.199 C5.3047 13.199 6.582 12.515 7.3242 11.379 C8.1367 10.133 8.4961 8.566 8.4961 6.238 C8.4961 4.094 8.1719 2.723 7.4141 1.586 C6.7109 0.558 5.5937 0 4.1836 0 C1.75 0 0 1.805 0 4.308 C0 6.691 1.625 8.367 3.9336 8.367 C5.1406 8.367 6.0234 7.933 6.8555 6.941 C6.8359 10.062 5.8281 11.793 4.0039 11.793 C2.8867 11.793 2.1133 11.09 1.8594 9.863 L0.2734 9.863 Z M4.168 1.387 C5.6445 1.387 6.7656 2.613 6.7656 4.273 C6.7656 5.844 5.6641 6.961 4.1133 6.961 C2.582 6.961 1.625 5.894 1.625 4.183 C1.625 2.558 2.707 1.387 4.168 1.387 Z" transform="translate(55.1836, 114.215)"/>
   <path style="fill:#161412; fill-rule:evenodd;stroke:none;" d="M6.3828 6.058 C7.6992 5.265 8.1328 4.617 8.1328 3.406 C8.1328 1.406 6.5625 0 4.2929 0 C2.0351 0 0.4492 1.406 0.4492 3.406 C0.4492 4.597 0.8828 5.246 2.1797 6.058 C0.7187 6.762 0 7.824 0 9.234 C0 11.578 1.7656 13.199 4.2929 13.199 C6.8164 13.199 8.582 11.578 8.582 9.25 C8.582 7.824 7.8632 6.762 6.3828 6.058 Z M4.2929 1.406 C5.6445 1.406 6.5078 2.199 6.5078 3.445 C6.5078 4.633 5.625 5.426 4.2929 5.426 C2.957 5.426 2.0742 4.633 2.0742 3.426 C2.0742 2.199 2.957 1.406 4.2929 1.406 Z M4.2929 6.762 C5.8789 6.762 6.9609 7.773 6.9609 9.269 C6.9609 10.785 5.8789 11.793 4.2539 11.793 C2.7031 11.793 1.6211 10.765 1.6211 9.269 C1.6211 7.773 2.7031 6.762 4.2929 6.762 Z" transform="translate(65.668, 114.215)"/>
   <path style="fill:#161412; fill-rule:evenodd;stroke:none;" d="M0.2734 9.863 C0.5781 11.957 1.9492 13.199 3.8984 13.199 C5.3047 13.199 6.582 12.515 7.3242 11.379 C8.1367 10.133 8.4961 8.566 8.4961 6.238 C8.4961 4.094 8.1719 2.723 7.4141 1.586 C6.7109 0.558 5.5937 0 4.1836 0 C1.75 0 0 1.805 0 4.308 C0 6.691 1.625 8.367 3.9336 8.367 C5.1406 8.367 6.0234 7.933 6.8555 6.941 C6.8359 10.062 5.8281 11.793 4.0039 11.793 C2.8867 11.793 2.1133 11.09 1.8594 9.863 L0.2734 9.863 Z M4.168 1.387 C5.6445 1.387 6.7656 2.613 6.7656 4.273 C6.7656 5.844 5.6641 6.961 4.1133 6.961 C2.582 6.961 1.625 5.894 1.625 4.183 C1.625 2.558 2.707 1.387 4.168 1.387 Z" transform="translate(76.1836, 114.215)"/>
   <path style="fill:#161412; fill-rule:evenodd;stroke:none;" d="M3.4063 6.926 L3.6055 6.926 L4.2735 6.906 C6.0235 6.906 6.9219 7.699 6.9219 9.234 C6.9219 10.836 5.9336 11.793 4.2735 11.793 C2.543 11.793 1.6953 10.926 1.586 9.07 L0 9.07 C0.0703 10.097 0.25 10.765 0.5586 11.344 C1.2071 12.57 2.4688 13.199 4.2188 13.199 C6.8516 13.199 8.5469 11.633 8.5469 9.215 C8.5469 7.59 7.9139 6.691 6.3828 6.168 C7.5739 5.699 8.1679 4.797 8.1679 3.515 C8.1679 1.316 6.7071 0 4.2735 0 C1.6953 0 0.3242 1.406 0.2696 4.129 L1.8555 4.129 C1.875 3.355 1.9453 2.922 2.1446 2.523 C2.5039 1.82 3.3008 1.387 4.2891 1.387 C5.6992 1.387 6.5469 2.219 6.5469 3.57 C6.5469 4.473 6.2188 5.012 5.5157 5.301 C5.086 5.48 4.5235 5.555 3.4063 5.57 L3.4063 6.926 Z" transform="translate(92.5781, 114.215)"/>
   <path style="fill:#161412; fill-rule:evenodd;stroke:none;" d="M8.551 0 L0 0 L0 1.566 L6.91 1.566 C3.86 5.914 2.617 8.582 1.66 12.785 L3.356 12.785 C4.059 8.691 5.664 5.176 8.551 1.332 L8.551 0 Z" transform="translate(103.328, 114.215)"/>
   <path style="fill:#161412; fill-rule:evenodd;stroke:none;" d="M6.383 6.058 C7.699 5.265 8.133 4.617 8.133 3.406 C8.133 1.406 6.562 0 4.293 0 C2.035 0 0.449 1.406 0.449 3.406 C0.449 4.597 0.883 5.246 2.18 6.058 C0.719 6.762 0 7.824 0 9.234 C0 11.578 1.766 13.199 4.293 13.199 C6.816 13.199 8.582 11.578 8.582 9.25 C8.582 7.824 7.863 6.762 6.383 6.058 Z M4.293 1.406 C5.644 1.406 6.508 2.199 6.508 3.445 C6.508 4.633 5.625 5.426 4.293 5.426 C2.957 5.426 2.074 4.633 2.074 3.426 C2.074 2.199 2.957 1.406 4.293 1.406 Z M4.293 6.762 C5.879 6.762 6.961 7.773 6.961 9.269 C6.961 10.785 5.879 11.793 4.254 11.793 C2.703 11.793 1.621 10.765 1.621 9.269 C1.621 7.773 2.703 6.762 4.293 6.762 Z" transform="translate(113.668, 114.215)"/>
   <path style="fill:#161412; fill-rule:evenodd;stroke:none;" d="M5.394 9.719 L5.394 12.785 L6.98 12.785 L6.98 9.719 L8.875 9.719 L8.875 8.293 L6.98 8.293 L6.98 0 L5.808 0 L0 8.043 L0 9.719 L5.394 9.719 Z M5.394 8.293 L1.391 8.293 L5.394 2.703 L5.394 8.293 Z" transform="translate(124.004, 114.215)"/>
   <path style="fill:#161412; fill-rule:evenodd;stroke:none;" d="M8.551 0 L0 0 L0 1.566 L6.91 1.566 C3.86 5.914 2.617 8.582 1.66 12.785 L3.356 12.785 C4.059 8.691 5.664 5.176 8.551 1.332 L8.551 0 Z" transform="translate(134.828, 114.215)"/>
   <path style="fill:#161412; fill-rule:evenodd;stroke:none;" d="M7.949 0 L1.351 0 L0.394 6.961 L1.855 6.961 C2.594 6.078 3.207 5.769 4.199 5.769 C5.914 5.769 6.996 6.941 6.996 8.836 C6.996 10.676 5.929 11.793 4.199 11.793 C2.812 11.793 1.965 11.09 1.586 9.648 L0 9.648 C0.215 10.691 0.394 11.199 0.773 11.668 C1.496 12.64 2.793 13.199 4.234 13.199 C6.816 13.199 8.617 11.324 8.617 8.621 C8.617 6.094 6.941 4.363 4.488 4.363 C3.586 4.363 2.867 4.597 2.125 5.14 L2.633 1.566 L7.949 1.566 L7.949 0 Z" transform="translate(145.133, 114.215)"/>
   <path style="fill:#161412; fill-rule:evenodd;stroke:none;" d="M2.78516 0.550782 L4.65235 0.550782 C4.91016 0.550782 5.03125 0.457032 5.03125 0.269532 C5.03125 0.093752 4.91016 0 4.65235 0 L0.363281 0 C0.121094 0 0 0.093752 0 0.269532 C0 0.457032 0.121094 0.550782 0.363281 0.550782 L2.23438 0.550782 L2.23438 7.01953 L0.363281 7.01953 C0.121094 7.01953 0 7.11328 0 7.28906 C0 7.47656 0.121094 7.57031 0.363281 7.57031 L4.65235 7.57031 C4.89453 7.57031 5.03125 7.47656 5.03125 7.28906 C5.03125 7.11328 4.91016 7.01953 4.65235 7.01953 L2.78516 7.01953 L2.78516 0.550782 Z" transform="translate(0.519531, 0.929688)"/>
   <path style="fill:#161412; fill-rule:evenodd;stroke:none;" d="M4.74611 0.792974 C4.17971 0.242188 3.57811 0 2.78121 0 C1.37109 0 0.30859 0.902344 0.30859 2.08593 C0.30859 2.64843 0.5625 3.17187 1.00781 3.48437 C1.41016 3.77734 1.89451 3.9414 2.83591 4.10156 C3.79301 4.26171 4.07421 4.34375 4.39841 4.55859 C4.77341 4.78906 5.00001 5.21875 5.00001 5.6875 C5.00001 6.68359 4.05861 7.41015 2.80861 7.41015 C1.58594 7.41015 0.58984 6.72265 0.55078 5.83593 C0.53516 5.62109 0.45703 5.51171 0.28125 5.51171 C0.09375 5.51171 0 5.63281 0 5.875 L0 7.38281 C0 7.625 0.09375 7.74609 0.26953 7.74609 C0.45703 7.74609 0.55078 7.625 0.55078 7.38281 L0.55078 6.99218 C1.10156 7.625 1.89451 7.96093 2.82421 7.96093 C4.43751 7.96093 5.59371 7.01953 5.59371 5.71484 C5.59371 5.03125 5.28511 4.44921 4.76171 4.1289 C4.35551 3.87109 3.98051 3.76562 2.94531 3.58984 C2.10941 3.45703 1.77341 3.34765 1.42578 3.12109 C1.08984 2.89062 0.89844 2.51562 0.89844 2.09765 C0.89844 1.21093 1.71871 0.550784 2.82421 0.550784 C3.87111 0.550784 4.69141 1.15625 4.74611 1.96484 C4.76171 2.17968 4.85551 2.28515 5.02731 2.28515 C5.20311 2.28515 5.29691 2.16406 5.29691 1.92187 L5.29691 0.539064 C5.29691 0.296874 5.20311 0.175782 5.02731 0.175782 C4.83981 0.175782 4.74611 0.296874 4.74611 0.539064 L4.74611 0.792974 Z" transform="translate(8.33789, 0.753906)"/>
   <path style="fill:#161412; fill-rule:evenodd;stroke:none;" d="M1.0899 7.01953 L0.3633 7.01953 C0.1211 7.01953 0 7.11328 0 7.28906 C0 7.47656 0.1211 7.57031 0.3633 7.57031 L4.4805 7.57031 C5.7032 7.57031 6.6993 6.64062 6.6993 5.51172 C6.6993 4.61328 6.1211 3.96484 4.9883 3.5625 C5.7813 3.13281 6.1329 2.63281 6.1329 1.94922 C6.1329 0.847652 5.1368 0 3.8321 0 L0.3633 0 C0.1211 0 0 0.093752 0 0.269532 C0 0.457032 0.1211 0.550782 0.3633 0.550782 L1.0899 0.550782 L1.0899 7.01953 Z M1.6407 3.35937 L1.6407 0.550782 L3.8477 0.550782 C4.8282 0.550782 5.5821 1.15625 5.5821 1.93359 C5.5821 2.76953 4.7618 3.35937 3.6172 3.35937 L1.6407 3.35937 Z M1.6407 7.01953 L1.6407 3.91406 L3.6446 3.91406 C4.4649 3.91406 4.9219 4.00781 5.3516 4.26172 C5.8516 4.55859 6.1446 5.02734 6.1446 5.51172 C6.1446 6.34765 5.3946 7.01953 4.4375 7.01953 L1.6407 7.01953 Z" transform="translate(15.7773, 0.929688)"/>
   <path style="fill:#161412; fill-rule:evenodd;stroke:none;" d="M6.4414 7.57031 L6.4414 0.550782 L6.8984 0.550782 C7.1406 0.550782 7.2617 0.457032 7.2617 0.269532 C7.2617 0.093752 7.1406 0 6.8984 0 L4.8945 0 C4.6406 0 4.5195 0.093752 4.5195 0.269532 C4.5195 0.457032 4.6406 0.550782 4.8945 0.550782 L5.8906 0.550782 L5.8906 6.77734 L1.7891 0 L0.3633 0 C0.1211 0 0 0.093752 0 0.269532 C0 0.457032 0.1211 0.550782 0.3633 0.550782 L1.0898 0.550782 L1.0898 7.01953 L0.6328 7.01953 C0.3906 7.01953 0.2695 7.11328 0.2695 7.28906 C0.2695 7.47656 0.3906 7.57031 0.6328 7.57031 L2.6484 7.57031 C2.8789 7.57031 3.0117 7.47656 3.0117 7.28906 C3.0117 7.11328 2.8906 7.01953 2.6484 7.01953 L1.6406 7.01953 L1.6406 0.792972 L5.7422 7.57031 L6.4414 7.57031 Z" transform="translate(23.5957, 0.929688)"/>
   <path style="fill:#161412; fill-rule:evenodd;stroke:none;" d="M4.4804 3.45703 C4.4922 3.71484 4.5078 3.91406 4.5078 4.03516 C4.5078 4.89844 4.2773 5.73047 3.9023 6.32031 C3.2422 7.33203 2.1797 7.96094 1.1562 7.96094 C0.9023 7.96094 0.6601 7.92188 0.5273 7.85547 C0.4179 7.78906 0.3633 7.77344 0.2968 7.77344 C0.1484 7.77344 0.0429 7.89453 0.0429 8.04297 C0.0429 8.30078 0.5273 8.51562 1.1054 8.51562 C1.9765 8.51562 2.8515 8.17969 3.5664 7.55859 C4.5586 6.71094 5.0312 5.55469 5.0312 3.99609 C5.0312 1.64062 3.914 0 2.3281 0 C1.0234 0 0 1.14453 0 2.59766 C0 3.96875 1.0234 5.09766 2.2461 5.09766 C3.2031 5.09766 3.9297 4.55859 4.4804 3.45703 Z M4.3984 2.73047 C4.0742 3.32422 3.9297 3.56641 3.7265 3.78125 C3.2968 4.26562 2.7578 4.54688 2.2617 4.54688 C1.3203 4.54688 0.5508 3.66016 0.5508 2.59766 C0.5508 1.44141 1.3203 0.550781 2.3125 0.550781 C3.2304 0.550781 3.914 1.15625 4.2773 2.28906 C4.3164 2.41016 4.3164 2.42188 4.3984 2.73047 Z" transform="translate(41.3262, 0.1875)"/>
   <path style="fill:#161412; fill-rule:evenodd;stroke:none;" d="M4.4649 0.792974 L2.3125 7.6914 C2.2969 7.74609 2.2852 7.82421 2.2852 7.86718 C2.2852 8.01171 2.4063 8.13281 2.5547 8.13281 C2.6875 8.13281 2.7539 8.0664 2.8242 7.85156 L5.0156 0.871094 L5.0156 0 L0 0 L0 1.01953 C0 1.27734 0.0938 1.39843 0.2813 1.39843 C0.4571 1.39843 0.5508 1.27734 0.5508 1.01953 L0.5508 0.550782 L4.4649 0.550782 L4.4649 0.792974 Z" transform="translate(49.0117, 0.378906)"/>
   <path style="fill:#161412; fill-rule:evenodd;stroke:none;" d="M3.5234 4.10156 C4.4805 3.61719 4.8945 3.03906 4.8945 2.21875 C4.8945 1.01172 3.8047 0 2.5156 0 C1.2227 0 0.1328 1.01172 0.1328 2.21875 C0.1328 3.03906 0.5664 3.61719 1.5078 4.10156 C0.5234 4.55859 0 5.25781 0 6.14844 C0 7.45312 1.1289 8.51562 2.5156 8.51562 C3.8984 8.51562 5.0312 7.45312 5.0312 6.14844 C5.0312 5.25781 4.5039 4.54688 3.5234 4.10156 Z M2.5156 0.550781 C3.5391 0.550781 4.3437 1.30469 4.3437 2.26172 C4.3437 3.13281 3.5234 3.83594 2.5156 3.83594 C1.4922 3.83594 0.6875 3.13281 0.6875 2.24609 C0.6875 1.30469 1.4922 0.550781 2.5156 0.550781 Z M2.5156 4.37109 C3.6328 4.37109 4.4805 5.13672 4.4805 6.16016 C4.4805 7.15625 3.5898 7.96094 2.5156 7.96094 C1.4258 7.96094 0.5508 7.15625 0.5508 6.14844 C0.5508 5.15234 1.4141 4.37109 2.5156 4.37109 Z" transform="translate(57.2168, 0.1875)"/>
   <path style="fill:#161412; fill-rule:evenodd;stroke:none;" d="M5.7696 0.55078 C6.0117 0.55078 6.1328 0.45703 6.1328 0.26562 C6.1328 0.09375 6.0117 0 5.7696 0 L0.3633 0 C0.1211 0 0 0.09375 0 0.26562 C0 0.45703 0.1211 0.55078 0.3633 0.55078 L5.7696 0.55078 Z" transform="translate(64.7656, 4.48047)"/>
   <path style="fill:#161412; fill-rule:evenodd;stroke:none;" d="M5.0313 3.59375 C5.0313 1.45312 4.0078 0 2.5156 0 C1.0235 0 0 1.45312 0 3.59375 L0 4.9375 C0 7.0625 1.0235 8.51562 2.5156 8.51562 C4.0078 8.51562 5.0313 7.0625 5.0313 4.9375 L5.0313 3.59375 Z M0.5508 3.66016 C0.5508 2.79688 0.793 1.88281 1.1953 1.26562 C1.4922 0.808594 1.9492 0.550781 2.5156 0.550781 C3.0781 0.550781 3.5391 0.808594 3.832 1.26562 C4.2383 1.88281 4.4805 2.79688 4.4805 3.66016 L4.4805 4.85547 C4.4805 5.71875 4.2383 6.63281 3.832 7.25 C3.5391 7.70703 3.0781 7.96094 2.5156 7.96094 C1.9492 7.96094 1.4922 7.70703 1.1953 7.25 C0.793 6.63281 0.5508 5.71875 0.5508 4.85547 L0.5508 3.66016 Z" transform="translate(73.416, 0.1875)"/>
   <path style="fill:#161412; fill-rule:evenodd;stroke:none;" d="M5.7696 0.55078 C6.0118 0.55078 6.1329 0.45703 6.1329 0.26562 C6.1329 0.09375 6.0118 0 5.7696 0 L0.3633 0 C0.1211 0 0 0.09375 0 0.26562 C0 0.45703 0.1211 0.55078 0.3633 0.55078 L5.7696 0.55078 Z" transform="translate(80.9648, 4.48047)"/>
   <path style="fill:#161412; fill-rule:evenodd;stroke:none;" d="M4.4805 3.45703 C4.4922 3.71484 4.5078 3.91406 4.5078 4.03516 C4.5078 4.89844 4.2774 5.73047 3.9024 6.32031 C3.2422 7.33203 2.1797 7.96094 1.1563 7.96094 C0.9024 7.96094 0.6602 7.92188 0.5274 7.85547 C0.418 7.78906 0.3633 7.77344 0.2969 7.77344 C0.1485 7.77344 0.043 7.89453 0.043 8.04297 C0.043 8.30078 0.5274 8.51562 1.1055 8.51562 C1.9766 8.51562 2.8516 8.17969 3.5664 7.55859 C4.5586 6.71094 5.0313 5.55469 5.0313 3.99609 C5.0313 1.64062 3.9141 0 2.3282 0 C1.0235 0 0 1.14453 0 2.59766 C0 3.96875 1.0235 5.09766 2.2461 5.09766 C3.2032 5.09766 3.9297 4.55859 4.4805 3.45703 Z M4.3985 2.73047 C4.0742 3.32422 3.9297 3.56641 3.7266 3.78125 C3.2969 4.26562 2.7578 4.54688 2.2617 4.54688 C1.3203 4.54688 0.5508 3.66016 0.5508 2.59766 C0.5508 1.44141 1.3203 0.550781 2.3125 0.550781 C3.2305 0.550781 3.9141 1.15625 4.2774 2.28906 C4.3164 2.41016 4.3164 2.42188 4.3985 2.73047 Z" transform="translate(89.9238, 0.1875)"/>
   <path style="fill:#161412; fill-rule:evenodd;stroke:none;" d="M3.5232 4.10156 C4.4802 3.61719 4.8942 3.03906 4.8942 2.21875 C4.8942 1.01172 3.8052 0 2.5152 0 C1.2227 0 0.1329 1.01172 0.1329 2.21875 C0.1329 3.03906 0.5664 3.61719 1.5079 4.10156 C0.5235 4.55859 0 5.25781 0 6.14844 C0 7.45312 1.129 8.51562 2.5152 8.51562 C3.8982 8.51562 5.0312 7.45312 5.0312 6.14844 C5.0312 5.25781 4.5042 4.54688 3.5232 4.10156 Z M2.5152 0.550781 C3.5392 0.550781 4.3442 1.30469 4.3442 2.26172 C4.3442 3.13281 3.5232 3.83594 2.5152 3.83594 C1.4922 3.83594 0.6875 3.13281 0.6875 2.24609 C0.6875 1.30469 1.4922 0.550781 2.5152 0.550781 Z M2.5152 4.37109 C3.6332 4.37109 4.4802 5.13672 4.4802 6.16016 C4.4802 7.15625 3.5902 7.96094 2.5152 7.96094 C1.4258 7.96094 0.5508 7.15625 0.5508 6.14844 C0.5508 5.15234 1.4141 4.37109 2.5152 4.37109 Z" transform="translate(97.7148, 0.1875)"/>
   <path style="fill:#161412; fill-rule:evenodd;stroke:none;" d="M4.481 3.45703 C4.492 3.71484 4.508 3.91406 4.508 4.03516 C4.508 4.89844 4.277 5.73047 3.902 6.32031 C3.242 7.33203 2.18 7.96094 1.156 7.96094 C0.902 7.96094 0.66 7.92188 0.527 7.85547 C0.418 7.78906 0.363 7.77344 0.297 7.77344 C0.148 7.77344 0.043 7.89453 0.043 8.04297 C0.043 8.30078 0.527 8.51562 1.106 8.51562 C1.977 8.51562 2.852 8.17969 3.566 7.55859 C4.559 6.71094 5.031 5.55469 5.031 3.99609 C5.031 1.64062 3.914 0 2.328 0 C1.023 0 0 1.14453 0 2.59766 C0 3.96875 1.023 5.09766 2.246 5.09766 C3.203 5.09766 3.93 4.55859 4.481 3.45703 Z M4.398 2.73047 C4.074 3.32422 3.93 3.56641 3.727 3.78125 C3.297 4.26562 2.758 4.54688 2.262 4.54688 C1.32 4.54688 0.551 3.66016 0.551 2.59766 C0.551 1.44141 1.32 0.550781 2.313 0.550781 C3.231 0.550781 3.914 1.15625 4.277 2.28906 C4.316 2.41016 4.316 2.42188 4.398 2.73047 Z" transform="translate(106.123, 0.1875)"/>
   <path style="fill:#161412; fill-rule:evenodd;stroke:none;" d="M3.738 3.90234 C3.765 3.88672 3.789 3.875 3.804 3.875 C4.609 3.53906 5.121 2.83984 5.121 2.07422 C5.121 0.90234 4.101 0 2.753 0 C2.054 0 1.382 0.214844 0.859 0.621094 C0.578 0.83594 0.386 1.07812 0.386 1.21094 C0.386 1.34766 0.507 1.46875 0.656 1.46875 C0.765 1.46875 0.804 1.44141 0.941 1.27734 C1.328 0.82031 1.988 0.550781 2.742 0.550781 C3.777 0.550781 4.57 1.21094 4.57 2.08594 C4.57 2.65234 4.195 3.17578 3.628 3.41797 C3.347 3.55078 3.132 3.56641 2.46 3.56641 C2.23 3.56641 2.097 3.66016 2.097 3.83594 C2.097 4.02344 2.218 4.11719 2.46 4.11719 C3.765 4.11719 4.867 5.00391 4.867 6.05469 C4.867 7.08984 3.843 7.96094 2.621 7.96094 C1.867 7.96094 1.113 7.70703 0.48 7.22266 C0.386 7.15625 0.335 7.12891 0.253 7.12891 C0.121 7.12891 0 7.25 0 7.38281 C0 7.55859 0.171 7.73438 0.617 7.96094 C1.316 8.33984 1.949 8.51562 2.605 8.51562 C4.152 8.51562 5.417 7.41016 5.417 6.05469 C5.417 5.13672 4.785 4.33203 3.738 3.90234 Z" transform="translate(113.688, 0.1875)"/>
   <path style="fill:#161412; fill-rule:evenodd;stroke:none;" d="M4.465 0.792974 L2.313 7.6914 C2.297 7.74609 2.285 7.82421 2.285 7.86718 C2.285 8.01171 2.406 8.13281 2.555 8.13281 C2.688 8.13281 2.754 8.0664 2.824 7.85156 L5.016 0.871094 L5.016 0 L0 0 L0 1.01953 C0 1.27734 0.094 1.39843 0.281 1.39843 C0.457 1.39843 0.551 1.27734 0.551 1.01953 L0.551 0.550782 L4.465 0.550782 L4.465 0.792974 Z" transform="translate(121.908, 0.378906)"/>
   <path style="fill:#161412; fill-rule:evenodd;stroke:none;" d="M3.524 4.10156 C4.481 3.61719 4.895 3.03906 4.895 2.21875 C4.895 1.01172 3.805 0 2.516 0 C1.223 0 0.133 1.01172 0.133 2.21875 C0.133 3.03906 0.567 3.61719 1.508 4.10156 C0.524 4.55859 0 5.25781 0 6.14844 C0 7.45312 1.129 8.51562 2.516 8.51562 C3.899 8.51562 5.032 7.45312 5.032 6.14844 C5.032 5.25781 4.504 4.54688 3.524 4.10156 Z M2.516 0.550781 C3.539 0.550781 4.344 1.30469 4.344 2.26172 C4.344 3.13281 3.524 3.83594 2.516 3.83594 C1.492 3.83594 0.688 3.13281 0.688 2.24609 C0.688 1.30469 1.492 0.550781 2.516 0.550781 Z M2.516 4.37109 C3.633 4.37109 4.481 5.13672 4.481 6.16016 C4.481 7.15625 3.59 7.96094 2.516 7.96094 C1.426 7.96094 0.551 7.15625 0.551 6.14844 C0.551 5.15234 1.414 4.37109 2.516 4.37109 Z" transform="translate(130.113, 0.1875)"/>
   <path style="fill:#161412; fill-rule:evenodd;stroke:none;" d="M3.645 5.84765 L3.645 7.57031 L2.622 7.57031 C2.379 7.57031 2.258 7.66406 2.258 7.83984 C2.258 8.02734 2.379 8.12109 2.622 8.12109 L4.653 8.12109 C4.895 8.12109 5.016 8.02734 5.016 7.83984 C5.016 7.66406 4.895 7.57031 4.653 7.57031 L4.196 7.57031 L4.196 5.84765 L4.653 5.84765 C4.895 5.84765 5.016 5.7539 5.016 5.57812 C5.016 5.39062 4.895 5.29687 4.653 5.29687 L4.196 5.29687 L4.196 0 L3.063 0 L0 5.21484 L0 5.84765 L3.645 5.84765 Z M3.645 5.29687 L0.524 5.29687 L3.321 0.550782 L3.645 0.550782 L3.645 5.29687 Z" transform="translate(138.107, 0.378906)"/>
   <path style="fill:#161412; fill-rule:evenodd;stroke:none;" d="M5.769 0.55078 C6.011 0.55078 6.133 0.45703 6.133 0.26562 C6.133 0.09375 6.011 0 5.769 0 L0.363 0 C0.121 0 0 0.09375 0 0.26562 C0 0.45703 0.121 0.55078 0.363 0.55078 L5.769 0.55078 Z" transform="translate(145.762, 4.48047)"/>
   <path style="fill:#161412; fill-rule:evenodd;stroke:none;" d="M4.464 0.792974 L2.312 7.6914 C2.297 7.74609 2.285 7.82421 2.285 7.86718 C2.285 8.01171 2.406 8.13281 2.554 8.13281 C2.687 8.13281 2.754 8.0664 2.824 7.85156 L5.015 0.871094 L5.015 0 L0 0 L0 1.01953 C0 1.27734 0.093 1.39843 0.281 1.39843 C0.457 1.39843 0.55 1.27734 0.55 1.01953 L0.55 0.550782 L4.464 0.550782 L4.464 0.792974 Z" transform="translate(154.307, 0.378906)"/>
   <path style="fill:#161412; fill-rule:evenodd;stroke:none;" d="M5.769 0.55078 C6.012 0.55078 6.133 0.45703 6.133 0.26562 C6.133 0.09375 6.012 0 5.769 0 L0.363 0 C0.121 0 0 0.09375 0 0.26562 C0 0.45703 0.121 0.55078 0.363 0.55078 L5.769 0.55078 Z" transform="translate(161.961, 4.48047)"/>
   <path style="fill:#161412; fill-rule:evenodd;stroke:none;" d="M1.261 0.550782 L4.504 0.550782 C4.758 0.550782 4.879 0.457032 4.879 0.265625 C4.879 0.09375 4.758 0 4.504 0 L0.711 0 L0.711 3.61718 C0.711 3.78906 0.82 3.91015 0.965 3.91015 C1.035 3.91015 1.101 3.88281 1.261 3.80468 C1.828 3.50781 2.418 3.35937 2.957 3.35937 C4.086 3.35937 4.867 4.19531 4.867 5.39062 C4.867 6.80468 3.965 7.76953 2.648 7.76953 C1.867 7.76953 1.14 7.46093 0.496 6.87109 C0.402 6.77734 0.347 6.75 0.265 6.75 C0.121 6.75 0 6.87109 0 7.01953 C0 7.17968 0.187 7.38281 0.617 7.66406 C1.289 8.10937 1.961 8.32421 2.676 8.32421 C4.273 8.32421 5.418 7.11328 5.418 5.41797 C5.418 3.91015 4.41 2.80859 3.039 2.80859 C2.445 2.80859 1.949 2.92968 1.261 3.21093 L1.261 0.550782 Z" transform="translate(170.385, 0.378906)"/>
   <path style="fill:none;stroke:#161412; stroke-width:1.125; stroke-linecap:butt; stroke-linejoin:miter; stroke-dasharray:none;" d="M0 0 L9 5.25 L0 10.5 " transform="translate(165.5, 115.75)"/>
  </g>
 </g>
</svg>
